HIERARCHY
ROOT Hips
{
	OFFSET 0.000000 0.000000 0.000000
	CHANNELS 6 Xposition Yposition Zposition Zrotation Yrotation Xrotation 
	JOINT LeftUpLeg_virtual
	{
		OFFSET 0.000000 0.000000 0.000000
		CHANNELS 3 Zrotation Yrotation Xrotation
		JOINT LeftUpLeg
		{
			OFFSET 8.479694 -4.795517 -0.379053
			CHANNELS 3 Zrotation Yrotation Xrotation
			JOINT LeftLeg
			{
				OFFSET 0.485052 -32.551468 0.112863
				CHANNELS 3 Zrotation Yrotation Xrotation
				JOINT LeftFoot
				{
					OFFSET 0.438033 -32.635670 -3.012641
					CHANNELS 3 Zrotation Yrotation Xrotation
					JOINT LeftToeBase
					{
						OFFSET 0.970169 -13.225353 11.864223
						CHANNELS 3 Zrotation Yrotation Xrotation
						End Site
						{
							OFFSET 0.000000 0.000000 0.000000
						}
					}
				}
			}
		}
	}
	JOINT RightUpLeg_virtual
	{
		OFFSET 0.000000 0.000000 0.000000
		CHANNELS 3 Zrotation Yrotation Xrotation
		JOINT RightUpLeg
		{
			OFFSET -8.479694 -4.795517 -0.379053
			CHANNELS 3 Zrotation Yrotation Xrotation
			JOINT RightLeg
			{
				OFFSET -0.484100 -32.551483 0.112903
				CHANNELS 3 Zrotation Yrotation Xrotation
				JOINT RightFoot
				{
					OFFSET -0.438985 -32.635651 -3.012681
					CHANNELS 3 Zrotation Yrotation Xrotation
					JOINT RightToeBase
					{
						OFFSET -0.970169 -13.225354 11.864223
						CHANNELS 3 Zrotation Yrotation Xrotation
						End Site
						{
							OFFSET 0.000000 0.000000 0.000000
						}
					}
				}
			}
		}
	}
	JOINT Spine_virtual
	{
		OFFSET 0.000000 0.000000 0.000000
		CHANNELS 3 Zrotation Yrotation Xrotation
		JOINT Spine
		{
			OFFSET 0.000000 7.722015 1.166203
			CHANNELS 3 Zrotation Yrotation Xrotation
			JOINT Spine1
			{
				OFFSET 0.000000 12.024086 0.248766
				CHANNELS 3 Zrotation Yrotation Xrotation
				JOINT Spine2
				{
					OFFSET -0.000000 11.503036 -0.491240
					CHANNELS 3 Zrotation Yrotation Xrotation
					JOINT Neck_virtual
					{
						OFFSET 0.000000 0.000000 0.000000
						CHANNELS 3 Zrotation Yrotation Xrotation
						JOINT Neck
						{
							OFFSET 0.000000 18.430687 -3.123054
							CHANNELS 3 Zrotation Yrotation Xrotation
							JOINT Head
							{
								OFFSET -0.000000 9.051071 1.034021
								CHANNELS 3 Zrotation Yrotation Xrotation
								End Site
								{
									OFFSET 0.000000 0.000000 0.000000
								}
							}
						}
					}
					JOINT LeftShoulder_virtual
					{
						OFFSET 0.000000 0.000000 0.000000
						CHANNELS 3 Zrotation Yrotation Xrotation
						JOINT LeftShoulder
						{
							OFFSET 6.197824 13.665230 -4.064723
							CHANNELS 3 Zrotation Yrotation Xrotation
							JOINT LeftArm
							{
								OFFSET 7.778132 -0.187073 -1.709282
								CHANNELS 3 Zrotation Yrotation Xrotation
								JOINT LeftForeArm
								{
									OFFSET 21.954697 0.000000 -2.041093
									CHANNELS 3 Zrotation Yrotation Xrotation
									JOINT LeftHand
									{
										OFFSET 22.992908 0.000000 -0.870901
										CHANNELS 3 Zrotation Yrotation Xrotation
										End Site
										{
											OFFSET 0.000000 0.000000 0.000000
										}
									}
								}
							}
						}
					}
					JOINT RightShoulder_virtual
					{
						OFFSET 0.000000 0.000000 0.000000
						CHANNELS 3 Zrotation Yrotation Xrotation
						JOINT RightShoulder
						{
							OFFSET -6.197824 13.665230 -4.064723
							CHANNELS 3 Zrotation Yrotation Xrotation
							JOINT RightArm
							{
								OFFSET -7.778132 -0.187073 -1.709282
								CHANNELS 3 Zrotation Yrotation Xrotation
								JOINT RightForeArm
								{
									OFFSET -21.954697 0.000000 -2.041093
									CHANNELS 3 Zrotation Yrotation Xrotation
									JOINT RightHand
									{
										OFFSET -22.992908 0.000000 -0.870901
										CHANNELS 3 Zrotation Yrotation Xrotation
										End Site
										{
											OFFSET 0.000000 0.000000 0.000000
										}
									}
								}
							}
						}
					}
				}
			}
		}
	}
}
MOTION
Frames: 14
Frame Time: 0.033333
-1.566344 80.753296 32.627522 -179.937919 3.406211 -179.974310 -4.190885 -1.262612 12.333274 -4.537893 -1.269692 -24.738537 9.558956 4.704603 28.108230 3.313570 -7.223415 -14.466851 0.000000 0.000000 0.000000 -1.059753 -1.414720 12.818746 0.070606 -0.073969 -24.286712 -1.122341 3.775369 30.765115 6.592724 2.867175 -13.416728 0.000000 0.000000 0.000000 2.846386 1.375519 -0.308598 -3.756138 1.426937 -0.863382 -0.118460 -3.093531 3.924982 -0.007442 0.002612 0.027223 -0.100926 -2.300883 4.562601 0.263652 1.633160 -4.271789 0.000000 0.000000 0.000000 1.368272 -1.534298 1.493963 -1.303686 4.570726 -6.544996 3.199613 -13.150838 -49.589649 -2.067948 -32.754626 -1.198948 0.000000 0.000000 0.000000 -2.473201 -0.345833 1.006599 17.946495 -8.496317 -12.545425 -0.215452 8.395271 -58.445922 1.417400 20.284564 1.460523 0.000000 0.000000 0.000000 
-1.579526 80.752892 32.614918 -179.867650 3.326297 -179.935064 -4.316241 -1.491796 12.354671 -4.364121 -1.062661 -24.709196 9.585587 4.779344 28.305083 3.381872 -7.261216 -14.981470 0.000000 0.000000 0.000000 -1.022678 -1.377853 12.792317 0.040168 0.062153 -24.261281 -1.183122 3.700763 30.931656 6.473380 2.737401 -13.646423 0.000000 0.000000 0.000000 2.859407 1.391313 -0.349186 -3.725201 1.418788 -0.889942 -0.060044 -3.118838 3.922564 -0.061146 -0.015730 0.022830 -0.119163 -2.344376 4.560352 0.290099 1.600797 -4.292987 0.000000 0.000000 0.000000 1.347520 -1.583781 1.493446 -1.292259 4.496478 -6.578998 3.097987 -13.045881 -49.557691 -2.079855 -32.842944 -1.179390 0.000000 0.000000 0.000000 -2.497498 -0.390973 1.014575 17.959451 -8.492144 -12.611787 -0.230142 8.251537 -58.546633 1.459232 20.297447 1.379127 0.000000 0.000000 0.000000 
-1.588711 80.748497 32.598240 -179.867021 3.394371 -179.967384 -4.383193 -1.397950 12.310457 -4.344848 -0.928734 -24.647743 9.632652 4.696500 28.344457 3.417207 -7.330178 -15.033480 0.000000 0.000000 0.000000 -1.024397 -1.298938 12.736191 0.028381 0.047777 -24.213637 -1.183489 3.687106 30.998206 6.481210 2.771221 -13.675599 0.000000 0.000000 0.000000 2.853913 1.418713 -0.351632 -3.714127 1.445913 -0.887460 -0.110497 -3.083325 3.930697 0.008938 0.012737 0.012656 -0.164205 -2.365776 4.563074 0.307388 1.617562 -4.265328 0.000000 0.000000 0.000000 1.323589 -1.613579 1.492553 -1.340336 4.454679 -6.568995 3.083709 -12.962533 -49.649717 -2.040591 -32.976406 -1.156880 0.000000 0.000000 0.000000 -2.554803 -0.383120 1.029936 18.010302 -8.414685 -12.495156 -0.295789 7.964940 -58.657132 1.425817 20.435752 1.333665 0.000000 0.000000 0.000000 
-1.598483 80.746307 32.586502 -179.878113 3.345375 -179.982984 -4.280026 -1.469251 12.279793 -4.410765 -1.186175 -24.613195 9.597346 4.814077 28.399626 3.422606 -7.226215 -15.009873 0.000000 0.000000 0.000000 -1.031012 -1.334842 12.696937 0.011886 -0.009244 -24.178672 -1.167644 3.698088 31.048298 6.469612 2.793207 -13.669319 0.000000 0.000000 0.000000 2.858223 1.372254 -0.369889 -3.701283 1.419229 -0.887561 -0.130411 -3.104861 3.961672 0.006914 -0.019151 0.019177 -0.149202 -2.323259 4.554122 0.374423 1.605766 -4.193687 0.000000 0.000000 0.000000 1.317180 -1.539267 1.466189 -1.356695 4.473426 -6.578454 2.986376 -12.881704 -49.694991 -1.998070 -33.148636 -1.139949 0.000000 0.000000 0.000000 -2.549906 -0.334099 1.027612 18.059177 -8.291165 -12.531784 -0.285424 7.639297 -58.709212 1.450628 20.650705 1.389946 0.000000 0.000000 0.000000 
-1.603749 80.749969 32.581028 -179.904396 3.344898 -179.935911 -4.338461 -1.494552 12.261278 -4.393278 -1.163655 -24.653047 9.593112 4.787561 28.390301 3.501872 -7.250093 -15.006706 0.000000 0.000000 0.000000 -1.036815 -1.317856 12.653699 0.007918 -0.125755 -24.206894 -1.172049 3.684391 31.071869 6.502088 2.873587 -13.647350 0.000000 0.000000 0.000000 2.846732 1.382903 -0.411262 -3.697989 1.453715 -0.928635 -0.170416 -3.049992 3.977726 -0.036639 0.026533 0.026924 -0.137516 -2.289677 4.536259 0.454502 1.677947 -4.091167 0.000000 0.000000 0.000000 1.308735 -1.538844 1.500625 -1.424384 4.369732 -6.498884 2.908916 -12.812092 -49.746597 -1.902607 -33.429890 -1.124526 0.000000 0.000000 0.000000 -2.513173 -0.384891 1.024528 18.033211 -8.231041 -12.524099 -0.148092 7.369839 -58.640480 1.347637 20.993498 1.321540 0.000000 0.000000 0.000000 
-1.611703 80.746407 32.588398 -179.938397 3.243976 -179.986686 -4.345705 -1.503396 12.314910 -4.396667 -1.308201 -24.654558 9.596633 4.775848 28.405626 3.503980 -7.190002 -14.983517 0.000000 0.000000 0.000000 -1.076163 -1.408534 12.705123 -0.001206 -0.220541 -24.180000 -1.164977 3.720489 31.081531 6.495800 2.911774 -13.634830 0.000000 0.000000 0.000000 2.824158 1.383312 -0.378500 -3.703016 1.464520 -0.936732 -0.196886 -3.009332 3.999602 -0.013129 0.052979 0.034961 -0.164153 -2.286158 4.504760 0.573006 1.589389 -3.966383 0.000000 0.000000 0.000000 1.251567 -1.581817 1.504066 -1.454142 4.284760 -6.431590 2.745798 -12.672261 -49.750131 -1.852297 -33.797723 -1.083161 0.000000 0.000000 0.000000 -2.580739 -0.432651 0.942301 18.003735 -8.128512 -12.440651 0.088991 7.036812 -58.674037 1.318478 21.375794 1.336467 0.000000 0.000000 0.000000 
-1.617570 80.748917 32.592445 -179.865068 3.175202 -179.921799 -4.294932 -1.514872 12.307317 -4.372729 -1.326405 -24.742009 9.622257 4.725659 28.443822 3.552777 -7.207407 -14.978526 0.000000 0.000000 0.000000 -1.019253 -1.343853 12.666867 0.028616 -0.217892 -24.228523 -1.158071 3.619489 31.044258 6.463039 2.919711 -13.649593 0.000000 0.000000 0.000000 2.835527 1.343092 -0.424086 -3.640927 1.397685 -0.990329 -0.199096 -3.039931 3.980967 0.017110 0.023633 0.005551 -0.259395 -2.342894 4.499994 0.589354 1.656830 -3.843696 0.000000 0.000000 0.000000 1.164081 -1.535608 1.484532 -1.522937 4.261759 -6.329242 2.484230 -12.404021 -49.719157 -1.884230 -34.199522 -0.967649 0.000000 0.000000 0.000000 -2.654336 -0.378063 1.004970 17.910324 -7.884740 -12.496091 0.295541 6.872464 -58.917881 1.357740 21.722908 1.467771 0.000000 0.000000 0.000000 
-1.625572 80.751045 32.606586 -179.869753 3.080950 -179.965294 -4.348524 -1.515922 12.331147 -4.344831 -1.336588 -24.767705 9.650098 4.669542 28.484095 3.543610 -7.255438 -14.978251 0.000000 0.000000 0.000000 -1.036906 -1.350617 12.694672 0.053714 -0.308596 -24.178026 -1.162144 3.555823 31.021661 6.456774 2.951617 -13.628776 0.000000 0.000000 0.000000 2.811365 1.356922 -0.422635 -3.580797 1.332305 -0.988076 -0.234213 -3.059644 4.009697 0.011054 -0.001240 0.013207 -0.273887 -2.308353 4.466200 0.668142 1.659440 -3.710375 0.000000 0.000000 0.000000 1.123328 -1.512945 1.471968 -1.579911 4.252910 -6.191541 2.287344 -12.194835 -49.837203 -1.916127 -34.612209 -0.942584 0.000000 0.000000 0.000000 -2.685616 -0.365349 0.979805 17.839006 -7.656785 -12.410388 0.517506 6.759779 -59.254220 1.307236 21.957801 1.505334 0.000000 0.000000 0.000000 
-1.634868 80.752197 32.640682 -179.949462 3.028359 -179.957152 -4.423855 -1.510230 12.304967 -4.343017 -1.381701 -24.799334 9.629907 4.592849 28.513426 3.536900 -7.194335 -14.943732 0.000000 0.000000 0.000000 -1.140624 -1.314598 12.650842 0.057666 -0.500621 -24.157392 -1.184330 3.550273 30.996809 6.509231 3.043697 -13.599633 0.000000 0.000000 0.000000 2.707912 1.394397 -0.499790 -3.539036 1.291759 -0.953279 -0.292722 -3.058354 4.027629 0.003902 -0.002534 0.011655 -0.275161 -2.266995 4.425863 0.705505 1.667315 -3.504231 0.000000 0.000000 0.000000 1.131333 -1.492180 1.428460 -1.517025 4.266460 -6.159630 1.925972 -11.946673 -50.050127 -1.975397 -35.069125 -0.911195 0.000000 0.000000 0.000000 -2.664352 -0.355804 0.988780 17.703668 -7.432922 -12.380013 0.783459 6.875928 -59.451585 1.125735 22.117939 1.469972 0.000000 0.000000 0.000000 
-1.645550 80.755333 32.685230 -179.953901 3.070920 -179.938479 -4.440531 -1.429642 12.244021 -4.328623 -1.435954 -24.827087 9.611450 4.548432 28.540437 3.542233 -7.158650 -14.911466 0.000000 0.000000 0.000000 -1.168342 -1.248533 12.576997 0.080799 -0.596842 -24.116420 -1.172462 3.505330 30.974355 6.539480 3.105084 -13.555759 0.000000 0.000000 0.000000 2.656907 1.456980 -0.599627 -3.433883 1.291968 -0.924167 -0.338710 -3.024740 4.052977 -0.019003 0.034516 0.023729 -0.285889 -2.253499 4.397031 0.738070 1.647677 -3.316545 0.000000 0.000000 0.000000 1.104661 -1.525925 1.435999 -1.448771 4.265185 -6.174541 1.550714 -11.739592 -50.340051 -2.220769 -35.619925 -0.649571 0.000000 0.000000 0.000000 -2.677526 -0.381659 0.911450 17.500048 -7.242648 -12.225406 1.141745 6.998987 -60.040027 0.933715 22.312944 1.398658 0.000000 0.000000 0.000000 
-1.662647 80.756149 32.744434 179.987328 3.014312 -179.947891 -4.538037 -1.482008 12.195977 -4.276200 -1.423879 -24.833554 9.610643 4.613676 28.586119 3.515783 -7.194179 -14.886266 0.000000 0.000000 0.000000 -1.204557 -1.278609 12.499634 0.038409 -0.563270 -24.089153 -1.190891 3.329521 30.967825 6.589559 3.191369 -13.523521 0.000000 0.000000 0.000000 2.567864 1.467622 -0.701432 -3.324044 1.232543 -0.872082 -0.381935 -3.065333 4.057613 0.021860 0.011058 0.006160 -0.346397 -2.300326 4.375726 0.710660 1.611596 -3.103280 0.000000 0.000000 0.000000 1.016581 -1.538417 1.431810 -1.367453 4.299361 -5.987066 1.121427 -11.633512 -50.365610 -2.199299 -36.419371 -0.751922 0.000000 0.000000 0.000000 -2.762789 -0.351837 0.902183 17.360410 -6.983072 -11.824548 1.398857 7.287725 -60.492615 0.583167 22.658434 1.190511 0.000000 0.000000 0.000000 
-1.673367 80.749741 32.811623 179.988202 3.076168 -179.946347 -4.572326 -1.403987 12.136364 -4.262414 -1.344509 -24.850446 9.609268 4.614194 28.650383 3.468296 -7.217352 -14.872112 0.000000 0.000000 0.000000 -1.198352 -1.199373 12.407658 0.043772 -0.608840 -24.094476 -1.192112 3.326917 31.014427 6.622225 3.238149 -13.514826 0.000000 0.000000 0.000000 2.512284 1.534717 -0.821100 -3.152493 1.240357 -0.801446 -0.438753 -3.064488 4.080356 0.023189 0.018387 0.019884 -0.401541 -2.317798 4.323508 0.626261 1.562483 -2.866721 0.000000 0.000000 0.000000 0.989275 -1.563091 1.343996 -1.263906 4.246811 -5.847911 0.686281 -11.590789 -50.216548 -2.298435 -37.615255 -0.574140 0.000000 0.000000 0.000000 -2.802339 -0.380157 0.856649 17.204439 -6.771568 -11.434555 1.658981 7.839820 -60.808211 0.300799 23.407354 1.056370 0.000000 0.000000 0.000000 
-1.678002 80.738785 32.887180 179.917933 3.057846 -179.980880 -4.590262 -1.420460 12.090728 -4.304272 -1.456366 -24.852847 9.589953 4.657685 28.727776 3.414818 -7.170067 -14.835938 0.000000 0.000000 0.000000 -1.282071 -1.247328 12.382605 0.027473 -0.692875 -24.090048 -1.230784 3.348428 31.085762 6.670025 3.282661 -13.479021 0.000000 0.000000 0.000000 2.418255 1.563066 -0.907752 -2.983309 1.229689 -0.715645 -0.540713 -3.096520 4.109401 -0.001373 -0.005547 0.007402 -0.413247 -2.265267 4.296437 0.521962 1.440174 -2.662818 0.000000 0.000000 0.000000 0.984124 -1.574333 1.328760 -1.168109 4.236685 -5.661081 0.305728 -11.896681 -49.730870 -2.341807 -39.263117 -0.320388 0.000000 0.000000 0.000000 -2.794634 -0.383304 0.830588 17.145218 -6.503268 -11.081919 1.929295 8.505261 -60.527285 0.094244 24.668943 1.024785 0.000000 0.000000 0.000000 
-1.680527 80.719887 32.985218 179.963709 3.113959 -179.941593 -4.536499 -1.360937 12.013427 -4.308138 -1.304355 -24.945376 9.595430 4.572797 28.796522 3.373797 -7.173521 -14.847062 0.000000 0.000000 0.000000 -1.245057 -1.175224 12.289777 0.054064 -0.701787 -24.180007 -1.241470 3.318071 31.173861 6.716085 3.322004 -13.513390 0.000000 0.000000 0.000000 2.374095 1.603616 -1.016229 -2.736848 1.296645 -0.665504 -0.611141 -3.083218 4.114224 0.012806 0.030241 0.006559 -0.534696 -2.322771 4.281439 0.355355 1.289690 -2.443724 0.000000 0.000000 0.000000 0.882817 -1.644941 1.360411 -1.178004 4.141618 -5.446932 0.014842 -12.400192 -48.707565 -2.281738 -41.300296 0.123488 0.000000 0.000000 0.000000 -2.935901 -0.399216 0.783708 17.221110 -6.161863 -10.572702 2.114555 9.157833 -59.533985 -0.005316 26.582342 1.100654 0.000000 0.000000 0.000000 
